<svg width="10" height="14" viewBox="0 0 10 14" fill="none" xmlns="http://www.w3.org/2000/svg">
<path id="Vector" d="M1.66667 0.333984C0.747396 0.333984 0 1.08138 0 2.00065V12.0007C0 12.9199 0.747396 13.6673 1.66667 13.6673H8.33333C9.2526 13.6673 10 12.9199 10 12.0007V4.50065H6.66667C6.20573 4.50065 5.83333 4.12826 5.83333 3.66732V0.333984H1.66667ZM6.66667 0.333984V3.66732H10L6.66667 0.333984ZM2.08333 2.00065H3.75C3.97917 2.00065 4.16667 2.18815 4.16667 2.41732C4.16667 2.64648 3.97917 2.83398 3.75 2.83398H2.08333C1.85417 2.83398 1.66667 2.64648 1.66667 2.41732C1.66667 2.18815 1.85417 2.00065 2.08333 2.00065ZM2.08333 3.66732H3.75C3.97917 3.66732 4.16667 3.85482 4.16667 4.08398C4.16667 4.31315 3.97917 4.50065 3.75 4.50065H2.08333C1.85417 4.50065 1.66667 4.31315 1.66667 4.08398C1.66667 3.85482 1.85417 3.66732 2.08333 3.66732ZM2.5 6.16732H7.5C7.96094 6.16732 8.33333 6.53971 8.33333 7.00065V8.66732C8.33333 9.12825 7.96094 9.50065 7.5 9.50065H2.5C2.03906 9.50065 1.66667 9.12825 1.66667 8.66732V7.00065C1.66667 6.53971 2.03906 6.16732 2.5 6.16732ZM2.5 7.00065V8.66732H7.5V7.00065H2.5ZM6.25 11.1673H7.91667C8.14583 11.1673 8.33333 11.3548 8.33333 11.584C8.33333 11.8132 8.14583 12.0007 7.91667 12.0007H6.25C6.02083 12.0007 5.83333 11.8132 5.83333 11.584C5.83333 11.3548 6.02083 11.1673 6.25 11.1673Z" fill="#313136"/>
</svg>
