<svg width="48" height="48" viewBox="0 0 48 48" fill="none" xmlns="http://www.w3.org/2000/svg">
<g id="Anna Grace Logo">
<path id="Vector" d="M3.15517 38.5246C0.402798 35.7781 -0.542872 31.902 0.294805 28.3674L6.07682 22.5796C8.04988 20.6094 10.9102 19.7221 13.6042 20.4431C15.2533 20.8838 16.8003 21.7244 18.1254 22.9619V9.73715L21.5315 6.44189V30.288C21.5315 31.4876 21.5257 32.369 21.2864 33.3847L15.5306 39.1726C13.5605 41.1457 10.6826 42.03 7.98859 41.3091C6.21984 40.8363 4.54156 39.9081 3.15517 38.5246ZM3.41493 30.8746C3.41493 36.4582 6.71894 41.0026 10.7818 41.0026C14.8447 41.0026 18.1254 36.4582 18.1254 30.8746C18.1254 25.2911 14.8418 20.7466 10.7818 20.7466C6.72186 20.7466 3.42077 25.2911 3.41493 30.8746Z" fill="#A1ADAE"/>
<path id="Vector_2" d="M44.8493 23.2245C47.5958 25.9711 48.5415 29.8501 47.7067 33.3817L41.9189 39.1696C39.9458 41.1397 37.0709 42.027 34.3769 41.3061C32.6081 40.8333 30.9357 39.9051 29.5493 38.5216C26.8027 35.7751 25.8571 31.8961 26.6918 28.3644L32.4797 22.5766C34.4527 20.6064 37.3277 19.7191 40.0217 20.4401C41.7905 20.9129 43.46 21.841 44.8493 23.2245ZM44.5662 30.8745C44.5662 25.291 41.2622 20.7465 37.1993 20.7465C33.1364 20.7465 29.8324 25.291 29.8324 30.8745C29.8324 36.4581 33.1364 41.0025 37.1993 41.0025C41.2622 41.0025 44.5662 36.4581 44.5662 30.8745Z" fill="#A1ADAE"/>
</g>
</svg>
