<svg width="25" height="18" viewBox="0 0 25 18" fill="none" xmlns="http://www.w3.org/2000/svg">
<path id="Vector" d="M5.9 17.3996C2.91875 17.3996 0.5 14.9809 0.5 11.9996C0.5 9.64461 2.0075 7.64211 4.1075 6.90336C4.10375 6.80211 4.1 6.70086 4.1 6.59961C4.1 3.28461 6.785 0.599609 10.1 0.599609C12.3238 0.599609 14.2625 1.80711 15.3013 3.60711C15.8713 3.22461 16.5613 2.99961 17.3 2.99961C19.2875 2.99961 20.9 4.61211 20.9 6.59961C20.9 7.05711 20.8137 7.49211 20.66 7.89711C22.85 8.33961 24.5 10.2784 24.5 12.5996C24.5 15.2509 22.3513 17.3996 19.7 17.3996H5.9ZM8.8625 9.26211C8.51 9.61461 8.51 10.1846 8.8625 10.5334C9.215 10.8821 9.785 10.8859 10.1337 10.5334L11.5963 9.07086V14.0996C11.5963 14.5984 11.9975 14.9996 12.4963 14.9996C12.995 14.9996 13.3963 14.5984 13.3963 14.0996V9.07086L14.8588 10.5334C15.2113 10.8859 15.7812 10.8859 16.13 10.5334C16.4788 10.1809 16.4825 9.61086 16.13 9.26211L13.13 6.26211C12.7775 5.90961 12.2075 5.90961 11.8588 6.26211L8.85875 9.26211H8.8625Z" fill="black"/>
</svg>
