<svg width="13" height="10" viewBox="0 0 13 10" fill="none" xmlns="http://www.w3.org/2000/svg">
<path id="Vector" d="M11.375 0.5C11.9961 0.5 12.5 1.00367 12.5 1.625C12.5 1.97891 12.3336 2.31172 12.05 2.525L6.95 6.35C6.68281 6.54922 6.31719 6.54922 6.05 6.35L0.95 2.525C0.666711 2.31172 0.5 1.97891 0.5 1.625C0.5 1.00367 1.00367 0.5 1.625 0.5H11.375ZM5.6 6.95C6.13438 7.35078 6.86562 7.35078 7.4 6.95L12.5 3.125V8C12.5 8.82734 11.8273 9.5 11 9.5H2C1.17148 9.5 0.5 8.82734 0.5 8V3.125L5.6 6.95Z" fill="#3A3A3B"/>
</svg>
