<svg width="16" height="12" viewBox="0 0 16 12" fill="none" xmlns="http://www.w3.org/2000/svg">
<path id="Vector" d="M1.55578 0.117002C1.31745 -0.0709116 0.971419 -0.0273707 0.783506 0.210958C0.595592 0.449288 0.639133 0.795323 0.877462 0.983237L14.4439 11.6164C14.6822 11.8043 15.0283 11.7608 15.2162 11.5224C15.4041 11.2841 15.3605 10.9381 15.1222 10.7501L12.7114 8.86185C13.6189 7.93145 14.2331 6.88876 14.5424 6.14856C14.6181 5.96752 14.6181 5.76586 14.5424 5.58482C14.201 4.76671 13.4837 3.57507 12.4112 2.5805C11.3342 1.57677 9.85147 0.733449 7.99984 0.733449C6.43695 0.733449 5.1353 1.33615 4.12011 2.12676L1.55578 0.117002ZM5.01614 2.828C5.84571 2.23905 6.84257 1.83343 7.99984 1.83343C9.49398 1.83343 10.7223 2.51175 11.6641 3.38486C12.5464 4.20526 13.156 5.1792 13.4677 5.86669C13.1789 6.50835 12.6289 7.3975 11.8429 8.17894L10.61 7.21188C10.8185 6.80855 10.9354 6.35252 10.9354 5.86669C10.9354 4.24651 9.62231 2.93341 8.00213 2.93341C7.26423 2.93341 6.5882 3.20611 6.07258 3.65527L5.01614 2.828ZM9.71627 6.51293L7.84859 5.04858C7.94484 4.85379 7.99984 4.63151 7.99984 4.40005C7.99984 4.27401 7.9838 4.15026 7.954 4.03339C7.97005 4.03339 7.9838 4.03339 7.99984 4.03339C9.01274 4.03339 9.83314 4.85379 9.83314 5.86669C9.83314 6.09356 9.79189 6.31127 9.71627 6.51293ZM10.8919 10.2552L2.57097 3.70111C2.3189 4.0311 2.10119 4.3588 1.92015 4.66817L9.68877 10.757C10.1173 10.631 10.5183 10.4591 10.8942 10.2574L10.8919 10.2552ZM1.45724 6.14856C1.7987 6.96667 2.51598 8.15832 3.58846 9.15288C4.66552 10.1566 6.1482 10.9999 7.99984 10.9999C8.07088 10.9999 8.13963 10.9976 8.21067 10.9954L6.51486 9.66621C5.67384 9.3958 4.9451 8.91226 4.33782 8.34852C3.91845 7.95895 3.55867 7.53271 3.26534 7.12021L1.42516 5.67878C1.38391 5.83461 1.39537 5.99961 1.45724 6.14856Z" fill="#C8C8C8"/>
</svg>
