<svg width="11" height="11" viewBox="0 0 11 11" fill="none" xmlns="http://www.w3.org/2000/svg">
<path id="Vector" d="M10.1953 9.02505C10.6015 9.43127 10.6015 10.0893 10.1953 10.4956C9.99379 10.6987 9.72731 10.7994 9.46083 10.7994C9.19435 10.7994 8.92852 10.6979 8.72574 10.4948L5.30116 7.07195L1.8769 10.4939C1.67379 10.6987 1.40764 10.7994 1.14148 10.7994C0.875327 10.7994 0.609498 10.6987 0.406226 10.4939C7.93487e-06 10.0877 7.93487e-06 9.42965 0.406226 9.02343L3.83146 5.5982L0.406226 2.17459C7.93487e-06 1.76837 7.93487e-06 1.1103 0.406226 0.704078C0.812445 0.297859 1.47052 0.297859 1.87674 0.704078L5.30116 4.13094L8.72639 0.705703C9.13261 0.299484 9.79068 0.299484 10.1969 0.705703C10.6031 1.11192 10.6031 1.76999 10.1969 2.17621L6.77167 5.60144L10.1953 9.02505Z" fill="#3A3A3B"/>
</svg>
