<svg width="22" height="16" viewBox="0 0 22 16" fill="none" xmlns="http://www.w3.org/2000/svg">
<rect width="22" height="16" fill="#1E1E1E"/>
<g id="User Onboard (Anna Grace Brand)">
<rect width="53919" height="5279" transform="translate(-16228 -2757)" fill="white"/>
<g id="Do Dashboard Template" clip-path="url(#clip0_30_4161)">
<rect width="1512" height="1305" transform="translate(-842 -932)" fill="white"/>
<g id="Scrolling Container">
<g id="All Content">
<g id="Header + Body">
<g id="Portfolio/List Item">
<g id="Link">
<path id="add link to profile" d="M-104.592 6.224C-106.192 6.224 -107.264 5.232 -107.264 3.76C-107.264 2.176 -105.968 1.392 -104.496 1.168L-101.952 0.768V0.432C-101.952 -0.464 -102.544 -0.944 -103.616 -0.944C-104.704 -0.944 -105.28 -0.432 -105.28 0.144C-105.28 0.208 -105.28 0.24 -105.248 0.352L-106.704 0.848C-106.784 0.656 -106.832 0.416 -106.832 0.192C-106.832 -1.04 -105.6 -2.16 -103.616 -2.16C-101.488 -2.16 -100.304 -1.216 -100.304 0.592V4.016C-100.304 4.928 -100.176 5.408 -99.792 6H-101.472C-101.632 5.792 -101.888 5.328 -101.888 4.576C-102.384 5.616 -103.44 6.224 -104.592 6.224ZM-104.256 4.848C-102.864 4.848 -101.952 3.728 -101.952 2.192V1.968L-104.128 2.32C-105.104 2.48 -105.632 2.96 -105.632 3.68C-105.632 4.416 -105.088 4.848 -104.256 4.848ZM-94.7387 6.224C-96.9307 6.224 -98.6107 4.576 -98.6107 2.032C-98.6107 -0.528 -96.7867 -2.16 -94.7707 -2.16C-93.5387 -2.16 -92.6107 -1.648 -92.1147 -0.784V-5.2H-90.4667V6H-92.1147V4.736C-92.5467 5.536 -93.4907 6.224 -94.7387 6.224ZM-94.4667 4.688C-93.0427 4.688 -92.0027 3.568 -92.0027 2.032C-92.0027 0.48 -93.0427 -0.64 -94.4667 -0.64C-95.8907 -0.64 -96.9307 0.464 -96.9307 2.032C-96.9307 3.584 -95.8907 4.688 -94.4667 4.688ZM-84.9106 6.224C-87.1026 6.224 -88.7826 4.576 -88.7826 2.032C-88.7826 -0.528 -86.9586 -2.16 -84.9426 -2.16C-83.7106 -2.16 -82.7826 -1.648 -82.2866 -0.784V-5.2H-80.6386V6H-82.2866V4.736C-82.7186 5.536 -83.6626 6.224 -84.9106 6.224ZM-84.6386 4.688C-83.2146 4.688 -82.1746 3.568 -82.1746 2.032C-82.1746 0.48 -83.2146 -0.64 -84.6386 -0.64C-86.0626 -0.64 -87.1026 0.464 -87.1026 2.032C-87.1026 3.584 -86.0626 4.688 -84.6386 4.688ZM-72.4046 6H-74.0526V-5.2H-72.4046V6ZM-68.4801 -3.216H-70.3521V-5.04H-68.4801V-3.216ZM-68.5921 6H-70.2401V-1.936H-68.5921V6ZM-64.7796 6H-66.4276V-1.936H-64.7796V-0.592C-64.1876 -1.552 -63.2116 -2.16 -62.0596 -2.16C-60.4436 -2.16 -59.2756 -1.168 -59.2756 0.592V6H-60.9236V1.184C-60.9236 0.0319996 -61.5636 -0.64 -62.6996 -0.64C-63.8356 -0.64 -64.7796 0.384 -64.7796 1.808V6ZM-50.3754 6H-52.2634L-54.8394 2L-55.6234 2.768V6H-57.2714V-5.2H-55.6234V0.736L-52.8714 -1.936H-50.8074L-53.6714 0.864L-50.3754 6ZM-41.5621 6.224C-42.8101 6.224 -43.8821 5.616 -43.8821 3.824V-0.624001H-45.1621V-1.936H-43.8821V-4.08H-42.2181V-1.936H-40.4101V-0.624001H-42.2181V3.584C-42.2181 4.416 -41.8341 4.752 -41.1781 4.752C-40.9061 4.752 -40.6821 4.704 -40.5221 4.656L-40.3781 6.032C-40.6821 6.144 -41.1141 6.224 -41.5621 6.224ZM-35.2614 6.224C-37.4374 6.224 -39.5014 4.768 -39.5014 2.032C-39.5014 -0.72 -37.4374 -2.16 -35.2614 -2.16C-33.0854 -2.16 -31.0214 -0.72 -31.0214 2.032C-31.0214 4.768 -33.0854 6.224 -35.2614 6.224ZM-35.2614 4.688C-33.8694 4.688 -32.6854 3.648 -32.6854 2.032C-32.6854 0.4 -33.8694 -0.64 -35.2614 -0.64C-36.6534 -0.64 -37.8374 0.4 -37.8374 2.032C-37.8374 3.648 -36.6534 4.688 -35.2614 4.688ZM-23.2484 9.264H-24.8964V-1.936H-23.2484V-0.656C-22.7364 -1.488 -21.6964 -2.16 -20.4324 -2.16C-18.3844 -2.16 -16.7524 -0.528 -16.7524 2.032C-16.7524 4.512 -18.4004 6.224 -20.5604 6.224C-21.7284 6.224 -22.6884 5.696 -23.2484 4.864V9.264ZM-20.8964 4.688C-19.4564 4.688 -18.4324 3.552 -18.4324 2.032C-18.4324 0.496 -19.4564 -0.64 -20.8964 -0.64C-22.3364 -0.64 -23.3604 0.512 -23.3604 2.032C-23.3604 3.536 -22.3364 4.688 -20.8964 4.688ZM-13.4202 6H-15.0682V-1.936H-13.4202V-0.592C-13.0042 -1.52 -12.2202 -2.16 -11.1802 -2.16C-10.9242 -2.16 -10.7162 -2.144 -10.5082 -2.08L-10.7802 -0.544C-10.9402 -0.592 -11.1642 -0.64 -11.4042 -0.64C-12.6042 -0.64 -13.4202 0.496 -13.4202 1.936V6ZM-5.80825 6.224C-7.98425 6.224 -10.0482 4.768 -10.0482 2.032C-10.0482 -0.72 -7.98425 -2.16 -5.80825 -2.16C-3.63225 -2.16 -1.56825 -0.72 -1.56825 2.032C-1.56825 4.768 -3.63225 6.224 -5.80825 6.224ZM-5.80825 4.688C-4.41625 4.688 -3.23225 3.648 -3.23225 2.032C-3.23225 0.4 -4.41625 -0.64 -5.80825 -0.64C-7.20025 -0.64 -8.38425 0.4 -8.38425 2.032C-8.38425 3.648 -7.20025 4.688 -5.80825 4.688ZM2.059 -1.936H6.875V6H5.227V-0.624001H2.059V6H0.395V-0.624001H-0.789V-1.936H0.395V-3.232C0.395 -5.008 1.419 -6 3.035 -6C3.355 -6 3.675 -5.952 3.963 -5.84L3.675 -4.4C3.451 -4.48 3.307 -4.496 3.083 -4.496C2.475 -4.496 2.059 -4.112 2.059 -3.296V-1.936ZM5.115 -3.216V-5.04H6.987V-3.216H5.115ZM10.6891 6H9.04113V-5.2H10.6891V6ZM20.2936 1.808V2.368H13.9416C14.1016 3.824 15.0456 4.8 16.4696 4.8C17.6216 4.8 18.3416 4.176 18.8376 3.184L20.0696 3.904C19.3816 5.328 18.1816 6.224 16.4856 6.224C13.9896 6.224 12.3736 4.352 12.3736 2.032C12.3736 -0.464 14.1816 -2.16 16.4856 -2.16C18.6776 -2.16 20.2936 -0.592 20.2936 1.808ZM14.0056 1.088H18.7096C18.5816 -0.176 17.6216 -0.88 16.4056 -0.88C15.1256 -0.88 14.2776 -0.112 14.0056 1.088Z" fill="#3A3A3B"/>
</g>
</g>
</g>
</g>
</g>
<g id="Overlay/20%">
<rect width="1026" height="1225" transform="translate(-595 -852)" fill="black" fill-opacity="0.2"/>
</g>
<g id="Portfolio Editor">
<g clip-path="url(#clip1_30_4161)">
<path d="M-193 -836C-193 -844.837 -185.837 -852 -177 -852H670V373H-177C-185.837 373 -193 365.837 -193 357V-836Z" fill="white"/>
<g id="Form Field Container">
<g id="New Portfolio Slideover">
<g id="Input Group">
<g id="Icon + Button">
<g id="Portfolio/New Project Slideover/Thumbnail Image">
<mask id="path-5-inside-2_30_4161" fill="white">
<path d="M-13 -8C-13 -12.4183 -9.41828 -16 -5 -16H27C31.4183 -16 35 -12.4183 35 -8V24C35 28.4183 31.4183 32 27 32H-5C-9.41828 32 -13 28.4183 -13 24V-8Z"/>
</mask>
<path d="M-13 -8C-13 -12.4183 -9.41828 -16 -5 -16H27C31.4183 -16 35 -12.4183 35 -8V24C35 28.4183 31.4183 32 27 32H-5C-9.41828 32 -13 28.4183 -13 24V-8Z" fill="#F1F1F7"/>
<g id="Font Awesome/image-landscape-light 1">
<path id="Vector" d="M19.296 2.07386C19.9515 2.07386 20.4812 2.60349 20.4812 3.25904V12.7405C20.4812 12.9664 20.4182 13.1776 20.3108 13.3553L14.296 5.83682C13.8219 5.24423 12.9182 5.24423 12.4441 5.83682L9.38486 9.66275L8.37375 8.27386C7.91819 7.64423 6.98856 7.6183 6.49967 8.22201L2.01079 13.7035C1.71449 13.4887 1.51819 13.1368 1.51819 12.7405V3.25904C1.51819 2.60349 2.04782 2.07386 2.70338 2.07386H19.296ZM19.2478 13.9257H7.49227L9.8256 11.0072L13.37 6.57756L19.2478 13.9257ZM6.26264 15.1109H19.296C20.6034 15.1109 21.6663 14.0479 21.6663 12.7405V3.25904C21.6663 1.95163 20.6034 0.888672 19.296 0.888672H2.70338C1.39597 0.888672 0.333008 1.95163 0.333008 3.25904V12.7405C0.333008 14.0479 1.39597 15.1109 2.70338 15.1109H6.25523C6.25893 15.1109 6.26264 15.1109 6.26634 15.1109H6.26264ZM5.97375 13.9257H3.36264L7.41819 8.97015L8.61819 10.622L5.97375 13.9257ZM5.66634 4.44423C5.82351 4.44423 5.97423 4.50666 6.08537 4.61779C6.1965 4.72893 6.25893 4.87965 6.25893 5.03682C6.25893 5.19399 6.1965 5.34471 6.08537 5.45585C5.97423 5.56698 5.82351 5.62941 5.66634 5.62941C5.50918 5.62941 5.35845 5.56698 5.24731 5.45585C5.13618 5.34471 5.07375 5.19399 5.07375 5.03682C5.07375 4.87965 5.13618 4.72893 5.24731 4.61779C5.35845 4.50666 5.50918 4.44423 5.66634 4.44423ZM5.66634 6.8146C5.8998 6.8146 6.13098 6.76861 6.34667 6.67927C6.56236 6.58993 6.75834 6.45898 6.92342 6.2939C7.0885 6.12882 7.21945 5.93284 7.30879 5.71715C7.39813 5.50146 7.44412 5.27028 7.44412 5.03682C7.44412 4.80336 7.39813 4.57218 7.30879 4.35649C7.21945 4.1408 7.0885 3.94482 6.92342 3.77974C6.75834 3.61466 6.56236 3.48371 6.34667 3.39437C6.13098 3.30503 5.8998 3.25904 5.66634 3.25904C5.43288 3.25904 5.2017 3.30503 4.98601 3.39437C4.77032 3.48371 4.57434 3.61466 4.40926 3.77974C4.24418 3.94482 4.11323 4.1408 4.02389 4.35649C3.93455 4.57218 3.88856 4.80336 3.88856 5.03682C3.88856 5.27028 3.93455 5.50146 4.02389 5.71715C4.11323 5.93284 4.24418 6.12882 4.40926 6.2939C4.57434 6.45898 4.77032 6.58993 4.98601 6.67927C5.2017 6.76861 5.43288 6.8146 5.66634 6.8146Z" fill="#D9D9E0"/>
</g>
<path d="M-13 -16H35H-13ZM35 32H-13H35ZM-13 32V-16V32ZM27 -16C32.5228 -16 37 -11.5228 37 -6V22C37 27.5228 32.5228 32 27 32C30.3137 32 33 28.4183 33 24V-8C33 -12.4183 30.3137 -16 27 -16Z" fill="white" mask="url(#path-5-inside-2_30_4161)"/>
</g>
</g>
</g>
<path d="M670 63H-193V65H670V63Z" fill="#D9D9E0" mask="url(#path-3-inside-1_30_4161)"/>
</g>
</g>
</g>
</g>
</g>
</g>
<defs>
<clipPath id="clip0_30_4161">
<rect width="1512" height="1305" fill="white" transform="translate(-842 -932)"/>
</clipPath>
<clipPath id="clip1_30_4161">
<path d="M-193 -836C-193 -844.837 -185.837 -852 -177 -852H670V373H-177C-185.837 373 -193 365.837 -193 357V-836Z" fill="white"/>
</clipPath>
</defs>
</svg>
