<svg width="14" height="14" viewBox="0 0 14 14" fill="none" xmlns="http://www.w3.org/2000/svg">
<path id="Vector" d="M6.99967 0.333984C3.31738 0.333984 0.333008 3.31836 0.333008 7.00065C0.333008 10.6829 3.31738 13.6673 6.99967 13.6673C10.682 13.6673 13.6663 10.6829 13.6663 7.00065C13.6663 3.31836 10.682 0.333984 6.99967 0.333984ZM6.99967 3.66732C7.45983 3.66732 7.83301 4.04049 7.83301 4.50065C7.83301 4.96081 7.45983 5.33398 6.99967 5.33398C6.53952 5.33398 6.16634 4.96159 6.16634 4.50065C6.16634 4.03971 6.53874 3.66732 6.99967 3.66732ZM8.04134 10.334H5.95801C5.61426 10.334 5.33301 10.0553 5.33301 9.70898C5.33301 9.36263 5.61296 9.08398 5.95801 9.08398H6.37467V7.41732H6.16634C5.82129 7.41732 5.54134 7.13737 5.54134 6.79232C5.54134 6.44727 5.82259 6.16732 6.16634 6.16732H6.99967C7.34473 6.16732 7.62467 6.44727 7.62467 6.79232V9.08398H8.04134C8.38639 9.08398 8.66634 9.36393 8.66634 9.70898C8.66634 10.054 8.3877 10.334 8.04134 10.334Z" fill="#313136"/>
</svg>
