<svg width="14" height="12" viewBox="0 0 14 12" fill="none" xmlns="http://www.w3.org/2000/svg">
<path id="Vector" d="M13.4222 6.58802C13.7477 6.26249 13.7477 5.73384 13.4222 5.40831L10.0887 2.07491C9.76316 1.74938 9.23448 1.74938 8.90895 2.07491C8.58341 2.40044 8.58341 2.92909 8.90895 3.25462L10.8205 5.16612H5.33325C4.87229 5.16612 4.49988 5.53852 4.49988 5.99947C4.49988 6.46041 4.87229 6.83282 5.33325 6.83282H10.8205L8.90895 8.74432C8.58341 9.06984 8.58341 9.5985 8.90895 9.92403C9.23448 10.2496 9.76316 10.2496 10.0887 9.92403L13.4222 6.59063V6.58802ZM4.49988 1.83272C4.96084 1.83272 5.33325 1.46031 5.33325 0.999366C5.33325 0.538419 4.96084 0.166016 4.49988 0.166016H2.83313C1.45285 0.166016 0.333008 1.28583 0.333008 2.66607V9.33287C0.333008 10.7131 1.45285 11.8329 2.83313 11.8329H4.49988C4.96084 11.8329 5.33325 11.4605 5.33325 10.9996C5.33325 10.5386 4.96084 10.1662 4.49988 10.1662H2.83313C2.37217 10.1662 1.99976 9.79382 1.99976 9.33287V2.66607C1.99976 2.20512 2.37217 1.83272 2.83313 1.83272H4.49988Z" fill="#313136"/>
</svg>
