<svg width="16" height="14" viewBox="0 0 16 14" fill="none" xmlns="http://www.w3.org/2000/svg">
<path id="Vector" d="M0 1.28739C0 0.655246 0.510714 0.144531 1.14286 0.144531H14.8571C15.4893 0.144531 16 0.655246 16 1.28739C16 1.91953 15.4893 2.43025 14.8571 2.43025H1.14286C0.510714 2.43025 0 1.91953 0 1.28739ZM0 7.00167C0 6.36953 0.510714 5.85882 1.14286 5.85882H14.8571C15.4893 5.85882 16 6.36953 16 7.00167C16 7.63382 15.4893 8.14453 14.8571 8.14453H1.14286C0.510714 8.14453 0 7.63382 0 7.00167ZM16 12.716C16 13.3481 15.4893 13.8588 14.8571 13.8588H1.14286C0.510714 13.8588 0 13.3481 0 12.716C0 12.0838 0.510714 11.5731 1.14286 11.5731H14.8571C15.4893 11.5731 16 12.0838 16 12.716Z" fill="#3A3A3B"/>
</svg>
