<svg width="12" height="12" viewBox="0 0 12 12" fill="none" xmlns="http://www.w3.org/2000/svg">
<path id="Vector" d="M9.89402 5.15602L9.62888 5.42115L9.09861 5.95142L4.28857 10.7614C4.13371 10.9162 3.94131 11.0312 3.73014 11.0922L0.722109 11.9767C0.525015 12.0354 0.311496 11.9814 0.166022 11.8336C0.0205477 11.6858 -0.0357649 11.477 0.022894 11.2775L0.907471 8.27192C0.968476 8.06075 1.08345 7.86835 1.23831 7.7135L6.04834 2.90356L6.57862 2.37329L6.84376 2.10816L7.63917 2.90356L9.09626 4.36062L9.89168 5.15602H9.89402ZM2.25193 8.29069L2.03372 8.5089C2.01261 8.53001 1.99618 8.55817 1.9868 8.58867L1.39317 10.6065L3.41103 10.0129C3.44154 10.0035 3.46969 9.98707 3.49081 9.96596L3.70902 9.74775H2.62735C2.42087 9.74775 2.25193 9.57881 2.25193 9.37234V8.29069ZM10.6355 0.439933L11.5599 1.36438C12.1465 1.95096 12.1465 2.90121 11.5599 3.48779L11.2197 3.82801L10.6894 4.35827L10.4243 4.62341L9.62888 3.82801L8.1718 2.37095L7.37403 1.57555L7.63917 1.31041L8.16945 0.780148L8.50967 0.439933C9.09626 -0.146644 10.0465 -0.146644 10.6331 0.439933H10.6355Z" fill="#3A3A3B"/>
</svg>
