<svg width="14" height="14" viewBox="0 0 14 14" fill="none" xmlns="http://www.w3.org/2000/svg">
<path id="Vector" d="M13.6663 7.00016C13.6663 7.0236 13.6663 7.04704 13.6663 7.07048C13.6559 8.021 12.7913 8.66683 11.8408 8.66683H9.29134C8.60124 8.66683 8.04134 9.22672 8.04134 9.91683C8.04134 10.0054 8.05176 10.0913 8.06738 10.1746C8.12207 10.4403 8.23665 10.6955 8.34863 10.9533C8.50749 11.3127 8.66374 11.6694 8.66374 12.047C8.66374 12.8752 8.10124 13.6278 7.27311 13.6616C7.18197 13.6642 7.09082 13.6668 6.99707 13.6668C3.31738 13.6668 0.333008 10.6825 0.333008 7.00016C0.333008 3.31787 3.31738 0.333496 6.99967 0.333496C10.682 0.333496 13.6663 3.31787 13.6663 7.00016ZM3.66634 7.8335C3.66634 7.61248 3.57854 7.40052 3.42226 7.24424C3.26598 7.08796 3.05402 7.00016 2.83301 7.00016C2.61199 7.00016 2.40003 7.08796 2.24375 7.24424C2.08747 7.40052 1.99967 7.61248 1.99967 7.8335C1.99967 8.05451 2.08747 8.26647 2.24375 8.42275C2.40003 8.57903 2.61199 8.66683 2.83301 8.66683C3.05402 8.66683 3.26598 8.57903 3.42226 8.42275C3.57854 8.26647 3.66634 8.05451 3.66634 7.8335ZM3.66634 5.3335C3.88735 5.3335 4.09932 5.2457 4.2556 5.08942C4.41188 4.93314 4.49967 4.72118 4.49967 4.50016C4.49967 4.27915 4.41188 4.06719 4.2556 3.91091C4.09932 3.75463 3.88735 3.66683 3.66634 3.66683C3.44533 3.66683 3.23337 3.75463 3.07709 3.91091C2.9208 4.06719 2.83301 4.27915 2.83301 4.50016C2.83301 4.72118 2.9208 4.93314 3.07709 5.08942C3.23337 5.2457 3.44533 5.3335 3.66634 5.3335ZM7.83301 2.8335C7.83301 2.61248 7.74521 2.40052 7.58893 2.24424C7.43265 2.08796 7.22069 2.00016 6.99967 2.00016C6.77866 2.00016 6.5667 2.08796 6.41042 2.24424C6.25414 2.40052 6.16634 2.61248 6.16634 2.8335C6.16634 3.05451 6.25414 3.26647 6.41042 3.42275C6.5667 3.57903 6.77866 3.66683 6.99967 3.66683C7.22069 3.66683 7.43265 3.57903 7.58893 3.42275C7.74521 3.26647 7.83301 3.05451 7.83301 2.8335ZM10.333 5.3335C10.554 5.3335 10.766 5.2457 10.9223 5.08942C11.0785 4.93314 11.1663 4.72118 11.1663 4.50016C11.1663 4.27915 11.0785 4.06719 10.9223 3.91091C10.766 3.75463 10.554 3.66683 10.333 3.66683C10.112 3.66683 9.90003 3.75463 9.74375 3.91091C9.58747 4.06719 9.49967 4.27915 9.49967 4.50016C9.49967 4.72118 9.58747 4.93314 9.74375 5.08942C9.90003 5.2457 10.112 5.3335 10.333 5.3335Z" fill="#A1ACAD"/>
</svg>
