<svg width="43" height="64" viewBox="0 0 43 64" fill="none" xmlns="http://www.w3.org/2000/svg">
<path id="Vector" d="M10.0725 18.2857C10.0725 13.2429 14.1725 9.14286 19.2154 9.14286H23.7868C28.8297 9.14286 32.9297 13.2429 32.9297 18.2857V18.8C32.9297 21.9143 31.344 24.8143 28.7297 26.4857L22.7011 30.3571C19.1011 32.6714 16.9297 36.6571 16.9297 40.9286V41.1429C16.9297 43.6714 18.9725 45.7143 21.5011 45.7143C24.0297 45.7143 26.0725 43.6714 26.0725 41.1429V40.9429C26.0725 39.7714 26.6725 38.6857 27.644 38.0571L33.6725 34.1857C38.9011 30.8143 42.0725 25.0286 42.0725 18.8V18.2857C42.0725 8.18571 33.8868 0 23.7868 0H19.2154C9.1154 0 0.929688 8.18571 0.929688 18.2857C0.929688 20.8143 2.97254 22.8571 5.50112 22.8571C8.02969 22.8571 10.0725 20.8143 10.0725 18.2857ZM21.5011 64C23.0166 64 24.4701 63.398 25.5417 62.3263C26.6134 61.2547 27.2154 59.8012 27.2154 58.2857C27.2154 56.7702 26.6134 55.3167 25.5417 54.2451C24.4701 53.1735 23.0166 52.5714 21.5011 52.5714C19.9856 52.5714 18.5321 53.1735 17.4605 54.2451C16.3889 55.3167 15.7868 56.7702 15.7868 58.2857C15.7868 59.8012 16.3889 61.2547 17.4605 62.3263C18.5321 63.398 19.9856 64 21.5011 64Z" fill="#A1ADAE"/>
</svg>
