<svg width="14" height="14" viewBox="0 0 14 14" fill="none" xmlns="http://www.w3.org/2000/svg">
<path id="Vector" d="M3.4554 3.07096C1.6403 3.68294 0.333008 5.39648 0.333008 7.41732C0.333008 9.94857 2.38509 12.0007 4.91634 12.0007C5.11947 12.0007 5.31999 11.9876 5.5153 11.9616C6.35645 13.0007 7.6403 13.6673 9.08301 13.6673C11.6143 13.6673 13.6663 11.6152 13.6663 9.08398C13.6663 6.69075 11.833 4.72721 9.49186 4.51888C9.7627 4.94857 9.97624 5.41732 10.1221 5.91471C11.4554 6.35221 12.4163 7.60482 12.4163 9.08398C12.4163 10.9251 10.9242 12.4173 9.08301 12.4173C8.22884 12.4173 7.45019 12.097 6.86165 11.5684C6.54134 11.2819 6.27572 10.9329 6.08561 10.5397C5.86947 10.0996 5.74967 9.60742 5.74967 9.08398C5.74967 7.6543 6.65072 6.43294 7.91634 5.96159C8.12988 6.40169 8.24967 6.89388 8.24967 7.41732C8.24967 8.55013 7.68457 9.55013 6.82259 10.1517C7.00488 10.5371 7.28353 10.8678 7.62467 11.1152C8.7627 10.2819 9.49967 8.93555 9.49967 7.41732C9.49967 5.39648 8.19238 3.68294 6.37728 3.07096L6.96322 1.75326C7.0127 1.63867 7.01009 1.50846 6.9554 1.39648L6.53874 0.563151C6.46842 0.422526 6.3252 0.333984 6.16634 0.333984H3.66634C3.50749 0.333984 3.36426 0.422526 3.29395 0.563151L2.87728 1.39648C2.82259 1.50846 2.81738 1.63867 2.86947 1.75326L3.4554 3.07096ZM4.18197 1.58398H5.65072L5.66113 1.60482L5.20801 2.62565H4.62467L4.17155 1.60482L4.18197 1.58398ZM4.49967 9.08398C4.49967 9.67253 4.60905 10.2324 4.81217 10.748C3.0179 10.6934 1.58301 9.222 1.58301 7.41732C1.58301 5.57617 3.0752 4.08398 4.91634 4.08398C5.77051 4.08398 6.54915 4.4043 7.13769 4.93294C5.5804 5.66471 4.49967 7.24805 4.49967 9.08398Z" fill="#313136"/>
</svg>
