<svg width="10" height="16" viewBox="0 0 10 16" fill="none" xmlns="http://www.w3.org/2000/svg">
<path id="Vector" d="M5.02544 0C5.57856 0 6.02544 0.446875 6.02544 1V2.11562C6.07544 2.12187 6.12231 2.12812 6.17231 2.1375C6.18481 2.14062 6.19419 2.14062 6.20669 2.14375L7.70669 2.41875C8.25044 2.51875 8.60981 3.04063 8.50981 3.58125C8.40981 4.12187 7.88794 4.48438 7.34731 4.38438L5.86294 4.1125C4.88481 3.96875 4.02231 4.06563 3.41606 4.30625C2.80981 4.54688 2.56606 4.87812 2.50981 5.18437C2.44731 5.51875 2.49419 5.70625 2.54731 5.82188C2.60356 5.94375 2.71919 6.08125 2.94731 6.23438C3.45669 6.56875 4.23794 6.7875 5.25044 7.05625L5.34106 7.08125C6.23481 7.31875 7.32856 7.60625 8.14106 8.1375C8.58481 8.42812 9.00356 8.82187 9.26294 9.37187C9.52856 9.93125 9.58481 10.5563 9.46294 11.2219C9.24731 12.4094 8.42856 13.2031 7.41294 13.6187C6.98481 13.7937 6.51919 13.9062 6.02544 13.9625V15C6.02544 15.5531 5.57856 16 5.02544 16C4.47231 16 4.02544 15.5531 4.02544 15V13.9094C4.01294 13.9062 3.99731 13.9062 3.98481 13.9031H3.97856C3.21606 13.7844 1.96294 13.4563 1.11919 13.0813C0.616061 12.8562 0.387936 12.2656 0.612936 11.7625C0.837936 11.2594 1.42856 11.0312 1.93169 11.2563C2.58481 11.5469 3.65981 11.8344 4.28169 11.9312C5.27856 12.0781 6.10044 11.9937 6.65669 11.7656C7.18481 11.55 7.42544 11.2375 7.49419 10.8625C7.55356 10.5312 7.50669 10.3406 7.45356 10.225C7.39419 10.1 7.27856 9.9625 7.04731 9.80937C6.53481 9.475 5.75044 9.25625 4.73481 8.9875L4.64731 8.96562C3.75669 8.72812 2.66294 8.4375 1.85044 7.90625C1.40669 7.61562 0.991061 7.21875 0.731686 6.66875C0.469186 6.10938 0.416061 5.48438 0.541061 4.81875C0.766061 3.625 1.65981 2.85 2.67544 2.44688C3.09106 2.28125 3.54731 2.16875 4.02544 2.10313V1C4.02544 0.446875 4.47231 0 5.02544 0Z" fill="#F2F9F9"/>
</svg>
