<svg width="36" height="36" viewBox="0 0 36 36" fill="none" xmlns="http://www.w3.org/2000/svg">
<path d="M2.36637 28.8936C0.302098 26.8337 -0.407154 23.9266 0.221103 21.2757L4.55761 16.9348C6.03741 15.4572 8.18268 14.7917 10.2032 15.3324C11.44 15.663 12.6002 16.2934 13.594 17.2216V7.30298L16.1486 4.83154V22.7161C16.1486 23.6158 16.1443 24.2769 15.9648 25.0387L11.648 29.3796C10.1703 30.8594 8.01194 31.5226 5.99144 30.982C4.66488 30.6273 3.40617 29.9312 2.36637 28.8936ZM2.5612 23.1561C2.5612 27.3438 5.03921 30.7521 8.08637 30.7521C11.1335 30.7521 13.594 27.3438 13.594 23.1561C13.594 18.9684 11.1313 15.5601 8.08637 15.5601C5.04139 15.5601 2.56558 18.9684 2.5612 23.1561Z" fill="#F2F9F9"/>
<path d="M33.637 17.4184C35.6969 19.4783 36.4061 22.3875 35.78 25.0363L31.4392 29.3772C29.9594 30.8548 27.8031 31.5203 25.7826 30.9796C24.4561 30.6249 23.2018 29.9288 22.162 28.8912C20.1021 26.8313 19.3928 23.9221 20.0189 21.2733L24.3598 16.9324C25.8396 15.4548 27.9958 14.7893 30.0163 15.33C31.3428 15.6847 32.595 16.3808 33.637 17.4184ZM33.4246 23.1559C33.4246 18.9682 30.9466 15.5599 27.8995 15.5599C24.8523 15.5599 22.3743 18.9682 22.3743 23.1559C22.3743 27.3436 24.8523 30.7519 27.8995 30.7519C30.9466 30.7519 33.4246 27.3436 33.4246 23.1559Z" fill="#F2F9F9"/>
</svg>
