<svg width="16" height="16" viewBox="0 0 16 16" fill="none" xmlns="http://www.w3.org/2000/svg">
<path d="M10.6679 10.6679L14.725 8.63929L16 8L14.7214 7.36071L10.6679 5.33214L8.63929 1.27857L8 0L7.36071 1.27857L5.33214 5.33214L1.27857 7.36071L0 8L1.27857 8.63929L5.33571 10.6679L7.36429 14.725L8 16L8.63929 14.7214L10.6679 10.6643V10.6679ZM8 13.4429L6.35714 10.1536L6.18571 9.81429L5.84643 9.64286L2.55714 8L5.84643 6.35714L6.18571 6.18571L6.35714 5.84643L8 2.55714L9.64286 5.84643L9.81429 6.18571L10.1536 6.35714L13.4429 8L10.1536 9.64286L9.81429 9.81429L9.64286 10.1536L8 13.4429Z" fill="#687778"/>
</svg>
