<svg width="104" height="121" viewBox="0 0 104 121" fill="none" xmlns="http://www.w3.org/2000/svg">
<path d="M53.571 120.161C53.167 120.592 52.6013 120.835 52.0088 120.835C51.4162 120.835 50.8506 120.592 50.4466 120.161L0.887054 68.447C0.0520835 67.5851 0.105953 66.2114 0.940923 65.4034C1.77589 64.5953 3.17649 64.6223 3.98452 65.4572L49.854 113.32V2.32273C49.854 1.13761 50.8237 0.167969 52.0088 0.167969C53.1939 0.167969 54.1635 1.13761 54.1635 2.32273V113.32L100.006 65.4842C100.841 64.6223 102.188 64.5953 103.05 65.4303C103.912 66.2653 103.939 67.612 103.104 68.4739L53.544 120.188L53.571 120.161Z" fill="#687778"/>
</svg>
